<?xml version="1.0" standalone="no"?><!DOCTYPE svg PUBLIC "-//W3C//DTD SVG 1.1//EN" "http://www.w3.org/Graphics/SVG/1.1/DTD/svg11.dtd"><svg t="1743154319461" class="icon" viewBox="0 0 1024 1024" version="1.1" xmlns="http://www.w3.org/2000/svg" p-id="4835" width="64" height="64" xmlns:xlink="http://www.w3.org/1999/xlink"><path d="M512 448m-426.666667 0a426.666667 426.666667 0 1 0 853.333334 0 426.666667 426.666667 0 1 0-853.333334 0Z" fill="#FFE500" p-id="4836"></path><path d="M512 21.333333C277.333333 21.333333 85.333333 213.333333 85.333333 448s192 426.666667 426.666667 426.666667 426.666667-192 426.666667-426.666667S746.666667 21.333333 512 21.333333z m0 789.333334C296.533333 810.666667 123.733333 637.866667 123.733333 422.4S296.533333 32 512 32s388.266667 174.933333 388.266667 388.266667C900.266667 637.866667 727.466667 810.666667 512 810.666667z" fill="#EBCB00" p-id="4837"></path><path d="M384 106.666667a128 32 0 1 0 256 0 128 32 0 1 0-256 0Z" fill="#FFF48C" p-id="4838"></path><path d="M226.133333 486.4a53.333333 32 0 1 0 106.666667 0 53.333333 32 0 1 0-106.666667 0Z" fill="#FFAA54" p-id="4839"></path><path d="M691.2 486.4a53.333333 32 0 1 0 106.666667 0 53.333333 32 0 1 0-106.666667 0Z" fill="#FFAA54" p-id="4840"></path><path d="M334.933333 586.666667c-6.4 0-12.8 2.133333-14.933333 6.4-4.266667 4.266667-6.4 10.666667-4.266667 17.066666 12.8 98.133333 96 174.933333 198.4 174.933334 102.4 0 185.6-76.8 198.4-174.933334 0-6.4-2.133333-12.8-4.266666-17.066666-4.266667-4.266667-10.666667-6.4-14.933334-6.4H334.933333z" fill="#FFB0CA" p-id="4841"></path><path d="M669.866667 710.4c-38.4-23.466667-93.866667-36.266667-157.866667-36.266667s-117.333333 14.933333-157.866667 36.266667c36.266667 46.933333 93.866667 76.8 157.866667 76.8s119.466667-29.866667 157.866667-76.8z" fill="#FF87AF" p-id="4842"></path><path d="M672 678.4c4.266667-8.533333 17.066667-6.4 17.066667 4.266667v196.266666c0 19.2-14.933333 34.133333-34.133334 34.133334-19.2 0-34.133333-14.933333-34.133333-34.133334v-104.533333c0-19.2 8.533333-40.533333 21.333333-53.333333 10.666667-12.8 21.333333-25.6 29.866667-42.666667z" fill="#4AEFF7" p-id="4843"></path><path d="M170.666667 970.666667a341.333333 32 0 1 0 682.666666 0 341.333333 32 0 1 0-682.666666 0Z" fill="#45413C" opacity=".15" p-id="4844"></path><path d="M620.8 420.266667l-53.333333-123.733334c-8.533333-23.466667-8.533333-49.066667 2.133333-72.533333 8.533333-21.333333 27.733333-36.266667 49.066667-42.666667 29.866667-6.4 57.6 10.666667 68.266666 40.533334l10.666667 32 29.866667-14.933334c27.733333-12.8 59.733333-2.133333 74.666666 23.466667 10.666667 19.2 10.666667 42.666667 2.133334 64-10.666667 23.466667-29.866667 42.666667-53.333334 51.2l-130.133333 42.666667z" fill="#FF6242" p-id="4845"></path><path d="M593.066667 241.066667c29.866667-6.4 57.6 10.666667 68.266666 40.533333l10.666667 32 29.866667-14.933333c27.733333-12.8 59.733333-2.133333 74.666666 23.466666 6.4 10.666667 8.533333 21.333333 8.533334 34.133334 8.533333-8.533333 14.933333-17.066667 19.2-27.733334 8.533333-21.333333 8.533333-44.8-2.133334-64-14.933333-27.733333-46.933333-36.266667-74.666666-23.466666l-29.866667 14.933333-10.666667-32c-8.533333-32-38.4-49.066667-68.266666-42.666667-21.333333 4.266667-38.4 21.333333-49.066667 42.666667-4.266667 10.666667-8.533333 23.466667-8.533333 34.133333 10.666667-8.533333 21.333333-14.933333 32-17.066666z" fill="#FF866E" p-id="4846"></path><path d="M390.4 424.533333l-189.866667-81.066666c-34.133333-14.933333-61.866667-44.8-76.8-83.2-12.8-34.133333-8.533333-70.4 10.666667-98.133334 25.6-38.4 74.666667-51.2 117.333333-27.733333l44.8 25.6 19.2-46.933333c19.2-44.8 64-66.133333 108.8-53.333334 32 10.666667 57.6 36.266667 70.4 70.4 12.8 38.4 10.666667 78.933333-6.4 113.066667l-98.133333 181.333333z" fill="#FF6242" p-id="4847"></path><path d="M168.533333 256c25.6-38.4 74.666667-51.2 117.333334-27.733333l44.8 25.6 19.2-46.933334c19.2-44.8 64-66.133333 108.8-53.333333 17.066667 4.266667 32 14.933333 44.8 27.733333 0-17.066667-2.133333-36.266667-8.533334-53.333333-12.8-34.133333-38.4-59.733333-70.4-70.4-44.8-14.933333-89.6 8.533333-108.8 53.333333l-19.2 46.933334-44.8-25.6c-42.666667-23.466667-91.733333-10.666667-117.333333 27.733333-19.2 27.733333-21.333333 64-10.666667 98.133333 6.4 17.066667 14.933333 32 27.733334 46.933334 2.133333-17.066667 6.4-34.133333 17.066666-49.066667z" fill="#FF866E" p-id="4848"></path></svg>